<?xml version="1.0" encoding="iso-8859-1"?>
<!-- Generator: Adobe Illustrator 17.1.0, SVG Export Plug-In . SVG Version: 6.00 Build 0)  -->
<!DOCTYPE svg PUBLIC "-//W3C//DTD SVG 1.1//EN" "http://www.w3.org/Graphics/SVG/1.1/DTD/svg11.dtd">
<svg xmlns="http://www.w3.org/2000/svg" xmlns:xlink="http://www.w3.org/1999/xlink" version="1.1" id="Capa_1" x="0px" y="0px" viewBox="0 0 211.076 211.076" style="enable-background:new 0 0 211.076 211.076;" xml:space="preserve" width="512px" height="512px">
<path d="M105.47,211.076c-37.51,0-68.027-30.517-68.027-68.027v-0.987h-1.488c-11.568,0-20.979-9.411-20.979-20.979v-9.606  c0-11.567,9.411-20.979,20.979-20.979h1.488V59.579c0-11.853,5.485-23.119,14.753-30.465c-0.333-1.606-0.506-3.262-0.506-4.943  c0-4.318,2.3-8.755,6.153-11.867c0.039-0.031,0.078-0.062,0.118-0.091l2.334-1.666c0.083-0.059,0.169-0.112,0.258-0.161  c0.363-0.197,0.774-0.445,1.245-0.728c2.199-1.319,5.523-3.313,11.019-4.99c7.577-2.485,15.576-3.941,24.415-4.438  c33.891-1.896,64.061,8.079,73.374,24.27c0.004,0.007,0.007,0.013,0.011,0.02c1.206,1.952,2.003,3.414,2.775,5.075  c7.619,16.388,1.42,33.59,0.105,36.862v24.04h1.624c11.568,0,20.979,9.411,20.979,20.979v9.606c0,11.568-9.411,20.979-20.979,20.979  h-1.624v0.987C173.497,180.559,142.98,211.076,105.47,211.076z M42.442,139.561v3.487c0,34.753,28.274,63.027,63.027,63.027  c34.753,0,63.027-28.274,63.027-63.027v-21.19h-4.429c-0.668,0-1.309-0.268-1.777-0.742c-0.47-0.476-0.73-1.118-0.723-1.786  c0.004-0.29,0.303-29.082-1.926-37.997c-2.013-8.056-7.763-11.271-8.006-11.404c-0.597-0.325-1.041-0.882-1.221-1.537  c-0.18-0.654-0.092-1.357,0.255-1.941c0.032-0.055,3.431-5.876,3.581-11.457c0.023-0.88-3.689-3.057-8.553-4.406  c-5.291-1.099-9.327-1.029-9.431-1.027c-0.021,0.001-0.042,0.001-0.063,0.001h-52c-7.519,0-14.017-1.292-19.313-3.841  c-0.886-0.427-1.739-0.908-2.555-1.44c-2.334,2.7-5.657,7.304-5.648,10.775c0.014,5.524,3.523,11.303,3.559,11.36  c0.361,0.589,0.464,1.302,0.283,1.968s-0.63,1.229-1.24,1.553c-0.231,0.126-5.98,3.342-7.994,11.397  c-2.229,8.915-1.929,37.707-1.925,37.997c0.007,0.668-0.252,1.311-0.722,1.786c-0.47,0.475-1.11,0.742-1.778,0.742h-4.429V139.561z   M173.634,137.061h1.487c8.812,0,15.979-7.168,15.979-15.979v-9.606c0-8.811-7.168-15.979-15.979-15.979h-1.487V137.061z   M35.954,95.497c-8.811,0-15.979,7.168-15.979,15.979v9.606c0,8.812,7.168,15.979,15.979,15.979h1.488V95.497H35.954z   M166.584,116.858h1.913V66.592c-2.177-4.749-5.54-8.176-9.286-10.647c-0.299,4.373-1.991,8.562-3.147,10.971  c2.526,1.973,6.664,6.138,8.431,13.204C166.492,88.117,166.607,109.46,166.584,116.858z M42.442,116.858h1.913  c-0.023-7.398,0.092-28.741,2.091-36.738c1.761-7.043,5.876-11.204,8.404-13.185c-1.272-2.576-3.15-7.171-3.162-11.869  c-0.013-5.307,4.219-11.004,6.778-13.963c-1.923-1.964-3.5-4.273-4.648-6.825C46.642,40.669,42.442,49.9,42.442,59.579V116.858z   M136.65,44.477c3.392,0,23.563,0.639,33.743,15.312c0.354-1.348,0.71-2.916,1.002-4.647c-2.933-2.857-13.53-12.211-29.298-15.209  c-11.021-2.096-24.042-1.285-36.633-0.499c-9.361,0.585-19.039,1.188-27.616,0.536c-8.314-0.632-14.077-2.801-18.019-5.228  c1.808,2.759,4.322,5.017,7.344,6.452c4.591,2.182,10.318,3.288,17.021,3.288h52C136.259,44.48,136.414,44.477,136.65,44.477z   M125.356,33.598c6.125,0,12.095,0.361,17.675,1.422c13.856,2.635,23.881,9.605,29.016,13.95c0.089-2.201,0.025-4.529-0.271-6.914  c-6.97-6.977-19.329-11.842-35.825-14.09c-8.736-1.192-18.695,0.164-29.238,1.599c-10.626,1.446-21.614,2.939-31.5,1.64  c-10.966-1.442-15.992-5.392-18.282-8.933c-0.158,0.638-0.241,1.275-0.241,1.898c0,0.235,0.004,0.471,0.013,0.704  c0.812,1.572,5.431,8.887,21.525,10.108c8.231,0.627,17.312,0.059,26.926-0.54C111.869,34.024,118.704,33.598,125.356,33.598z   M128.72,22.519c2.713,0,5.358,0.146,7.906,0.492c13.972,1.904,25.27,5.679,33.214,11.042c-0.293-0.786-0.62-1.57-0.982-2.352  c-0.702-1.511-1.438-2.852-2.538-4.628c-0.02-0.03-0.039-0.064-0.058-0.099c-8.29-14.376-37.202-23.516-68.75-21.753  c-8.398,0.472-15.979,1.849-23.176,4.209c-0.036,0.013-0.075,0.024-0.112,0.034c-4.903,1.51-7.879,3.296-9.854,4.48  c-0.48,0.288-0.907,0.543-1.289,0.756l-2.152,1.535c-0.292,0.239-0.573,0.49-0.84,0.75c0.315,1.971,2.401,7.501,15.775,9.261  c9.225,1.215,19.874-0.235,30.173-1.637C113.63,23.578,121.413,22.519,128.72,22.519z M130.269,183.862  c-0.55,0-1.104-0.181-1.565-0.552c-0.106-0.086-11.089-8.763-23.515-8.763c-12.443,0-22.804,8.637-22.908,8.724  c-1.054,0.891-2.632,0.759-3.523-0.295c-0.892-1.055-0.759-2.632,0.295-3.523c0.479-0.404,11.882-9.905,26.135-9.905  c14.219,0,26.149,9.464,26.65,9.866c1.075,0.865,1.246,2.439,0.381,3.515C131.725,183.543,131.001,183.862,130.269,183.862z   M146.403,135.873c-0.655,0-1.311-0.256-1.801-0.766c-0.025-0.025-3.828-3.782-11.606-4.92c-7.819-1.145-12.326,1.028-12.371,1.051  c-1.229,0.607-2.731,0.116-3.35-1.108c-0.619-1.226-0.144-2.716,1.076-3.345c0.233-0.122,5.839-2.939,15.368-1.545  c9.577,1.4,14.289,6.195,14.484,6.398c0.958,0.995,0.928,2.577-0.066,3.535C147.652,135.64,147.027,135.873,146.403,135.873z   M64.708,135.863c-0.629,0-1.259-0.235-1.744-0.709c-0.982-0.96-1.013-2.525-0.061-3.515c0.196-0.204,4.907-4.999,14.485-6.399  c9.531-1.396,15.133,1.423,15.368,1.545c1.227,0.632,1.709,2.14,1.077,3.367c-0.632,1.227-2.141,1.71-3.368,1.076  c-0.026-0.013-4.531-2.184-12.353-1.041c-7.779,1.138-11.582,4.895-11.619,4.933C66.004,135.614,65.356,135.863,64.708,135.863z   M137.017,114.715c-0.463,0-0.93-0.128-1.348-0.396l-17.522-11.238c-1.162-0.745-1.5-2.292-0.755-3.454  c0.746-1.163,2.292-1.499,3.454-0.755l17.522,11.238c1.162,0.745,1.5,2.292,0.755,3.454  C138.646,114.308,137.841,114.715,137.017,114.715z M72.356,114.715c-0.823,0-1.629-0.406-2.107-1.15  c-0.745-1.162-0.407-2.709,0.755-3.454l17.522-11.238c1.162-0.744,2.709-0.406,3.454,0.755c0.745,1.162,0.407,2.709-0.755,3.454  l-17.522,11.238C73.286,114.587,72.818,114.715,72.356,114.715z" fill="#FFFFFF"/>
<g>
</g>
<g>
</g>
<g>
</g>
<g>
</g>
<g>
</g>
<g>
</g>
<g>
</g>
<g>
</g>
<g>
</g>
<g>
</g>
<g>
</g>
<g>
</g>
<g>
</g>
<g>
</g>
<g>
</g>
</svg>
